PathFileType  4	(X/Y/Z) /Users/kristensteudel/Documents/NMBL_Research/BertecForceProcessing/anc_files/
DataRate	CameraRate	NumFrames	NumMarkers	Units	OrigDataRate	OrigDataStartFrame	OrigNumFrames
  200.0		  200.0		    6		     46		 mm	  200.0	      544	    724
Frame#	Time	r_knee			r_shank_antsup			r_ankle			r_calc			r_5meta			r_toe			L_knee			L_shank_antsup			L_ankle			L_calc			L_5meta			L_toe			r_sh2			r_sh3			r_sh4			L_sh2			L_sh3			r_thigh1			r_thigh2			r_thigh3			r_thigh4			r_thigh5			L_thigh1			L_thigh2			L_thigh3			L_thigh4			r.ASIS			r.PSIS			L.ASIS			L.PSIS			C7			R_Shoulder			L_Shoulder			Sternum			R_humerus			R_elbow_med			R_elbow_lat			R_forearm			R_wrist_radius			R_wrist_ulna			L_humerus			L_elbow_med			L_elbow_lat			L_forearm			L_wrist_radius			L_wrist_ulna			
		X1	Y1	Z1	X2	Y2	Z2	X3	Y3	Z3	X4	Y4	Z4	X5	Y5	Z5	X6	Y6	Z6	X7	Y7	Z7	X8	Y8	Z8	X9	Y9	Z9	X10	Y10	Z10	X11	Y11	Z11	X12	Y12	Z12	X13	Y13	Z13	X14	Y14	Z14	X15	Y15	Z15	X16	Y16	Z16	X17	Y17	Z17	X18	Y18	Z18	X19	Y19	Z19	X20	Y20	Z20	X21	Y21	Z21	X22	Y22	Z22	X23	Y23	Z23	X24	Y24	Z24	X25	Y25	Z25	X26	Y26	Z26	X27	Y27	Z27	X28	Y28	Z28	X29	Y29	Z29	X30	Y30	Z30	X31	Y31	Z31	X32	Y32	Z32	X33	Y33	Z33	X34	Y34	Z34	X35	Y35	Z35	X36	Y36	Z36	X37	Y37	Z37	X38	Y38	Z38	X39	Y39	Z39	X40	Y40	Z40	X41	Y41	Z41	X42	Y42	Z42	X43	Y43	Z43	X44	Y44	Z44	X45	Y45	Z45	X46	Y46	Z46	

544	2.71500	687.976	504.200	-172.660	572.086	488.636	-171.433	272.114	613.436	-203.412	292.618	686.024	-269.780	135.445	566.435	-183.230	139.420	511.037	-239.888	959.709	538.571	-474.481	1005.974	421.181	-477.035	1028.124	102.271	-417.932	981.504	83.313	-356.096	1186.733	38.337	-431.636	1222.273	82.970	-378.184	458.016	521.984	-182.529	589.005	559.081	-152.892	483.588	600.204	-173.938	916.872	412.869	-470.933	945.047	296.193	-448.701	841.369	682.322	-155.025	802.234	574.441	-177.066	754.191	555.753	-154.782	736.699	706.541	-117.407	702.657	598.210	-150.174	938.466	778.611	-502.058	996.128	655.357	-466.103	832.375	728.890	-511.780	893.262	609.820	-473.157	892.936	980.509	-187.671	687.701	1056.329	-225.466	850.950	1000.742	-445.413	667.696	1054.561	-330.517	786.961	1536.733	-312.482	866.957	1512.518	-141.704	784.737	1513.561	-499.079	930.316	1435.000	-350.993	827.457	1311.549	-24.615	687.192	1206.896	-46.449	719.810	1241.675	35.261	877.680	1202.986	-39.372	970.021	1174.439	-99.379	963.452	1133.315	-69.190	633.196	1338.410	-581.895	511.540	1264.171	-501.352	528.969	1307.210	-589.629	665.708	1221.056	-589.524	775.617	1188.433	-525.960	743.636	1151.628	-580.510
545	2.72000	700.299	498.093	-172.099	585.410	485.297	-170.578	290.222	619.775	-202.297	311.353	692.350	-268.734	153.072	574.769	-181.382	155.439	518.993	-239.187	957.951	534.829	-475.512	1000.133	415.176	-477.192	1009.912	96.244	-417.191	960.567	80.385	-355.599	1161.516	38.740	-431.492	1201.984	71.500	-372.086	472.507	522.366	-181.640	604.582	555.120	-152.480	500.537	599.633	-173.464	910.713	410.224	-473.124	933.879	291.657	-450.057	848.387	679.823	-154.462	812.443	570.419	-176.065	764.915	550.220	-153.561	743.110	700.584	-116.292	712.120	591.330	-149.471	939.842	775.595	-504.860	995.487	651.611	-466.926	831.174	727.072	-510.243	891.911	606.649	-474.004	891.869	976.265	-187.151	686.922	1051.326	-224.028	850.210	998.114	-446.016	666.933	1050.164	-329.713	787.036	1532.826	-314.279	865.172	1509.136	-142.128	786.930	1507.853	-501.281	931.030	1430.392	-350.570	821.753	1307.328	-26.402	681.507	1205.492	-48.999	713.382	1239.872	33.349	871.420	1194.942	-38.024	964.301	1163.545	-95.715	955.853	1122.673	-64.568	637.886	1329.475	-584.842	515.787	1255.854	-505.494	534.238	1297.714	-593.755	672.356	1213.334	-591.063	780.258	1181.448	-526.035	749.603	1144.160	-581.017
546	2.72500	713.120	491.930	-171.127	599.437	481.656	-169.826	308.692	624.439	-201.561	330.435	697.375	-267.433	171.236	581.585	-179.445	172.607	526.072	-237.856	955.839	529.876	-476.555	993.563	409.064	-477.280	990.074	93.793	-414.689	937.308	79.484	-356.688	1138.632	40.599	-428.265	1179.368	62.390	-365.429	487.606	522.158	-180.844	620.841	550.857	-151.581	517.621	597.926	-172.986	903.857	406.479	-474.971	922.119	287.037	-451.702	855.583	677.038	-153.568	823.064	566.745	-175.049	776.025	544.952	-152.368	749.734	694.809	-115.347	721.996	584.735	-148.961	941.104	771.603	-506.455	994.076	646.707	-467.938	831.211	724.266	-510.195	889.726	602.511	-475.385	890.312	972.526	-186.341	682.529	1043.478	-222.696	849.887	995.627	-446.239	664.918	1045.793	-329.105	787.057	1528.501	-316.290	863.096	1505.581	-142.391	789.119	1502.076	-503.842	931.826	1425.443	-350.163	815.532	1303.121	-28.212	675.503	1204.185	-51.696	706.605	1237.998	30.967	864.753	1187.878	-37.670	957.952	1152.244	-91.929	947.661	1112.113	-61.038	642.917	1320.173	-587.760	520.115	1247.072	-509.923	539.500	1288.166	-598.119	678.197	1204.644	-593.189	785.348	1173.906	-526.106	755.734	1136.173	-581.446
547	2.73000	726.755	486.292	-169.248	614.052	477.499	-168.085	327.748	627.845	-200.263	349.887	701.011	-265.955	190.227	586.350	-177.373	190.521	531.224	-236.516	953.304	523.770	-477.633	988.109	403.038	-476.855	965.876	94.430	-407.962	908.940	74.041	-354.461	1112.612	40.792	-425.991	1151.706	57.244	-360.878	503.604	521.283	-179.930	637.683	546.456	-150.188	535.604	596.081	-172.012	896.897	403.530	-476.413	910.871	283.587	-452.471	862.984	674.728	-152.473	833.932	563.375	-173.780	787.578	540.020	-151.238	756.681	689.262	-114.175	732.288	578.496	-148.530	941.551	765.778	-506.248	992.167	640.385	-468.402	830.728	721.259	-510.458	886.918	597.931	-476.889	888.760	968.506	-185.487	682.205	1038.908	-221.859	849.463	993.163	-446.101	663.547	1041.139	-328.990	787.215	1524.433	-317.764	860.884	1501.927	-142.485	791.918	1496.345	-505.933	932.717	1420.398	-349.552	809.043	1298.760	-30.425	669.442	1202.304	-54.280	699.506	1236.138	28.372	858.172	1179.792	-35.056	951.148	1141.015	-87.934	938.877	1101.630	-57.250	648.208	1310.416	-590.580	524.596	1238.469	-514.034	545.404	1278.237	-602.417	684.599	1195.487	-593.874	790.705	1165.969	-525.777	762.001	1127.820	-581.801
548	2.73500	741.028	480.591	-168.523	629.674	473.210	-167.275	347.095	629.802	-199.018	369.421	703.580	-264.198	209.740	589.211	-175.298	211.339	536.065	-233.476	950.674	517.229	-477.971	982.023	394.654	-474.926	936.337	93.947	-398.407	883.683	66.569	-342.299	1086.167	40.665	-424.152	1125.186	56.255	-358.793	520.177	519.696	-178.826	654.805	541.485	-149.461	554.123	593.798	-170.929	893.342	401.279	-477.409	898.539	281.982	-452.638	870.666	672.619	-151.595	845.116	560.308	-172.755	799.598	535.396	-150.276	763.928	683.559	-113.360	743.350	572.101	-147.040	941.045	760.597	-503.893	989.816	633.808	-469.508	829.712	717.438	-511.634	883.913	593.380	-477.433	887.165	964.436	-184.741	681.825	1035.284	-219.265	848.519	990.266	-445.683	663.662	1037.394	-327.791	788.114	1519.453	-319.977	858.589	1498.293	-142.379	794.767	1490.797	-508.140	933.578	1415.157	-349.010	802.055	1294.589	-32.784	663.664	1200.340	-57.029	692.417	1234.386	25.907	850.705	1172.034	-33.432	943.829	1129.754	-83.679	929.386	1090.997	-53.113	653.978	1300.631	-593.399	529.933	1229.275	-518.363	551.688	1268.047	-606.857	691.044	1186.117	-595.737	796.147	1157.823	-525.742	768.306	1119.036	-582.138
549	2.74000	756.589	475.302	-167.499	645.955	468.855	-166.336	366.740	630.619	-197.663	388.842	704.783	-262.292	230.060	590.068	-173.113	228.743	537.300	-232.501	948.110	511.085	-477.098	978.018	388.660	-469.840	911.890	93.420	-390.934	857.763	69.132	-339.953	1060.270	40.892	-421.368	1100.420	54.602	-354.714	537.426	517.590	-177.898	672.416	536.455	-148.443	572.879	590.870	-169.973	889.633	399.835	-477.750	886.103	281.375	-450.823	878.413	670.777	-150.989	856.733	557.584	-171.707	812.228	531.294	-149.400	771.328	678.316	-112.747	754.817	566.169	-146.458	939.386	755.238	-501.360	987.618	626.777	-471.349	828.328	712.940	-514.590	880.628	588.938	-476.702	887.451	962.703	-184.375	680.142	1030.959	-220.467	847.509	987.389	-444.804	662.063	1034.049	-327.471	788.202	1515.147	-321.821	856.235	1494.771	-142.246	797.762	1485.290	-510.469	934.508	1409.854	-348.312	794.998	1290.536	-35.404	657.340	1198.544	-59.928	685.111	1232.591	23.276	842.922	1164.402	-31.753	935.464	1118.552	-79.227	919.205	1080.263	-48.660	660.028	1290.588	-595.995	535.593	1220.120	-522.886	558.353	1257.743	-611.266	697.799	1176.493	-597.514	802.173	1149.395	-525.697	774.980	1109.864	-582.340
